<?xml version="1.0" encoding="UTF-8" standalone="no"?>
<svg
   width="162.64325"
   height="163.00052"
   viewBox="0 0 162.64325 163.00052"
   fill="none"
   version="1.1"
   id="svg11"
   sodipodi:docname="E_Logo.svg"
   inkscape:version="1.4.2 (ebf0e940, 2025-05-08)"
   xmlns:inkscape="http://www.inkscape.org/namespaces/inkscape"
   xmlns:sodipodi="http://sodipodi.sourceforge.net/DTD/sodipodi-0.dtd"
   xmlns="http://www.w3.org/2000/svg"
   xmlns:svg="http://www.w3.org/2000/svg">
  <defs
     id="defs11" />
  <sodipodi:namedview
     id="namedview11"
     pagecolor="#ffffff"
     bordercolor="#000000"
     borderopacity="0.25"
     inkscape:showpageshadow="2"
     inkscape:pageopacity="0.0"
     inkscape:pagecheckerboard="0"
     inkscape:deskcolor="#d1d1d1"
     inkscape:zoom="0.38365044"
     inkscape:cx="544.76674"
     inkscape:cy="635.99562"
     inkscape:window-width="1728"
     inkscape:window-height="991"
     inkscape:window-x="0"
     inkscape:window-y="38"
     inkscape:window-maximized="1"
     inkscape:current-layer="svg11" />
  <path
     d="m 155.00007,81.500048 c 4.418,0 8.041,-3.59 7.608,-7.988 -1.5,-15.234 -7.269,-29.797 -16.72,-41.976 -11.092,-14.294 -26.624,-24.4907 -44.15,-28.9833 -17.526003,-4.4927 -36.048003,-3.02599992 -52.649003,4.169 -16.6,7.195 -30.334,19.7093 -39.038,35.5703 -8.7040003,15.861 -11.8830003,34.168 -9.0350003,52.035 2.847,17.867002 11.5590003,34.278002 24.7620003,46.648002 13.203,12.37 30.147,19.995 48.161,21.674 15.35,1.43 30.733003,-1.527 44.389003,-8.444 3.941,-1.997 5.024,-6.981 2.651,-10.708 L 89.330067,93.797048 c -3.391,-5.326 0.435,-12.297 6.749,-12.297 z"
     fill="#563917"
     id="path11" />
</svg>
