<?xml version="1.0" encoding="UTF-8" standalone="no"?>
<svg
   width="167.62079"
   height="160.00029"
   viewBox="0 0 167.62079 160.00029"
   fill="none"
   version="1.1"
   id="svg11"
   sodipodi:docname="G_Logo.svg"
   inkscape:version="1.4.2 (ebf0e940, 2025-05-08)"
   xmlns:inkscape="http://www.inkscape.org/namespaces/inkscape"
   xmlns:sodipodi="http://sodipodi.sourceforge.net/DTD/sodipodi-0.dtd"
   xmlns="http://www.w3.org/2000/svg"
   xmlns:svg="http://www.w3.org/2000/svg">
  <defs
     id="defs11" />
  <sodipodi:namedview
     id="namedview11"
     pagecolor="#ffffff"
     bordercolor="#000000"
     borderopacity="0.25"
     inkscape:showpageshadow="2"
     inkscape:pageopacity="0.0"
     inkscape:pagecheckerboard="0"
     inkscape:deskcolor="#d1d1d1"
     inkscape:zoom="0.14751429"
     inkscape:cx="2176.0604"
     inkscape:cy="1443.9279"
     inkscape:window-width="1728"
     inkscape:window-height="991"
     inkscape:window-x="0"
     inkscape:window-y="38"
     inkscape:window-maximized="1"
     inkscape:current-layer="svg11" />
  <path
     d="m 160,79.999997 c 4.418,0 8.043,3.592 7.581,7.986 -1.569,14.894993 -7.504,29.130993 -17.206,41.043993 -11.425,14.029 -27.424,24.039 -45.479,28.455 -18.0552,4.417 -37.1397,2.988 -54.2482,-4.061 -17.1086,-7.049 -31.2692,-19.318 -40.2518,-34.874 C 1.4134196,102.99399 -1.8808504,85.033997 1.0319996,67.498997 3.9448596,49.963997 12.8993,33.849997 26.4853,21.694097 40.0713,9.5384968 57.5168,2.0319966 76.0745,0.35699665 91.815,-1.0638033 107.597,1.7791966 121.632,8.4772966 c 4.112,1.9626004 5.249,7.1309004 2.723,10.9237004 l -32.0744,48.165 c -3.5406,5.317 0.2709,12.434 6.6586,12.434 z"
     fill="#563917"
     id="path10" />
</svg>
