<?xml version="1.0" encoding="UTF-8" standalone="no"?>
<svg
   width="51"
   height="156"
   viewBox="0 0 51 156"
   fill="none"
   version="1.1"
   id="svg11"
   sodipodi:docname="I_Logo.svg"
   inkscape:version="1.4.2 (ebf0e940, 2025-05-08)"
   xmlns:inkscape="http://www.inkscape.org/namespaces/inkscape"
   xmlns:sodipodi="http://sodipodi.sourceforge.net/DTD/sodipodi-0.dtd"
   xmlns="http://www.w3.org/2000/svg"
   xmlns:svg="http://www.w3.org/2000/svg">
  <defs
     id="defs11" />
  <sodipodi:namedview
     id="namedview11"
     pagecolor="#ffffff"
     bordercolor="#000000"
     borderopacity="0.25"
     inkscape:showpageshadow="2"
     inkscape:pageopacity="0.0"
     inkscape:pagecheckerboard="0"
     inkscape:deskcolor="#d1d1d1"
     inkscape:zoom="0.14751429"
     inkscape:cx="1687.9721"
     inkscape:cy="1443.9279"
     inkscape:window-width="1728"
     inkscape:window-height="991"
     inkscape:window-x="0"
     inkscape:window-y="38"
     inkscape:window-maximized="1"
     inkscape:current-layer="svg11" />
  <path
     d="M 51,25.5 C 51,39.583 39.583,51 25.5,51 11.417,51 0,39.583 0,25.5 0,11.4167 11.417,0 25.5,0 39.583,0 51,11.4167 51,25.5 Z"
     fill="#563917"
     id="path6" />
  <path
     d="M 36,25.5 C 36,19.701 31.299,15 25.5,15 19.701,15 15,19.701 15,25.5 15,31.299 19.701,36 25.5,36 V 51 C 11.417,51 0,39.583 0,25.5 0,11.4167 11.417,0 25.5,0 39.583,0 51,11.4167 51,25.5 51,39.583 39.583,51 25.5,51 V 36 C 31.299,36 36,31.299 36,25.5 Z"
     fill="#563917"
     id="path7" />
  <path
     d="M 0,87.5 C 0,73.417 11.417,62 25.5,62 v 0 C 39.583,62 51,73.417 51,87.5 v 43 C 51,144.583 39.583,156 25.5,156 v 0 C 11.417,156 0,144.583 0,130.5 Z"
     fill="#563917"
     id="path8" />
  <path
     d="m 36,130.5 v -43 C 36,81.701 31.299,77 25.5,77 19.701,77 15,81.701 15,87.5 v 43 c 0,5.799 4.701,10.5 10.5,10.5 v 15 C 11.637,156 0.358,144.937 0.009,131.158 L 0,130.5 v -43 C 0,73.417 11.417,62 25.5,62 39.583,62 51,73.417 51,87.5 v 43 l -0.009,0.658 C 50.642,144.937 39.363,156 25.5,156 v -15 c 5.799,0 10.5,-4.701 10.5,-10.5 z"
     fill="#563917"
     id="path9" />
</svg>
