<?xml version="1.0" encoding="UTF-8" standalone="no"?>
<svg
   width="124"
   height="161"
   viewBox="0 0 124 161"
   fill="none"
   version="1.1"
   id="svg11"
   sodipodi:docname="P_Logo.svg"
   inkscape:version="1.4.2 (ebf0e940, 2025-05-08)"
   xmlns:inkscape="http://www.inkscape.org/namespaces/inkscape"
   xmlns:sodipodi="http://sodipodi.sourceforge.net/DTD/sodipodi-0.dtd"
   xmlns="http://www.w3.org/2000/svg"
   xmlns:svg="http://www.w3.org/2000/svg">
  <defs
     id="defs11" />
  <sodipodi:namedview
     id="namedview11"
     pagecolor="#ffffff"
     bordercolor="#000000"
     borderopacity="0.25"
     inkscape:showpageshadow="2"
     inkscape:pageopacity="0.0"
     inkscape:pagecheckerboard="0"
     inkscape:deskcolor="#d1d1d1"
     inkscape:zoom="0.14751429"
     inkscape:cx="1823.5521"
     inkscape:cy="1443.9279"
     inkscape:window-width="1728"
     inkscape:window-height="991"
     inkscape:window-x="0"
     inkscape:window-y="38"
     inkscape:window-maximized="1"
     inkscape:current-layer="svg11" />
  <path
     d="m 59,0 c 35.899,0 65,29.101 65,65 0,35.899 -29.101,65 -65,65 h -8 v 5.5 C 51,149.583 39.583,161 25.5,161 11.417,161 0,149.583 0,135.5 V 25.195 C 0,11.2804 11.28,0 25.195,0 Z"
     fill="#563917"
     id="path4" />
  <path
     d="M 0,135.5 V 25.195 C 0,11.2804 11.28,0 25.195,0 H 59 c 35.899,0 65,29.101 65,65 0,35.899 -29.101,65 -65,65 V 115 C 86.614,115 109,92.614 109,65 109,37.602 86.963,15.35 59.646,15.0039 L 59,15 H 25.195 C 19.565,15 15,19.5646 15,25.195 V 135.5 c 0,5.799 4.701,10.5 10.5,10.5 v 15 C 11.417,161 0,149.583 0,135.5 Z m 36,0 V 115 h 23 v 15 h -8 v 5.5 C 51,149.583 39.583,161 25.5,161 v -15 c 5.618,0 10.205,-4.412 10.486,-9.96 z"
     fill="#563917"
     id="path5" />
</svg>
