<?xml version="1.0" encoding="UTF-8"?>
<svg width="710" height="315" viewBox="0 0 710 315" fill="none" xmlns="http://www.w3.org/2000/svg">
    <path
        d="M338.003 130.25C352.791 172.763 330.316 219.214 287.804 234.003C245.291 248.791 198.84 226.316 184.051 183.804C169.263 141.291 191.738 94.8398 234.25 80.0514C276.763 65.263 323.214 87.7378 338.003 130.25Z"
        fill="#F39323" />
    <path
        d="M287.804 234.003C301.316 229.302 313.353 221.128 322.704 210.302C332.056 199.475 338.393 186.378 341.078 172.326C343.764 158.274 342.703 143.762 338.003 130.25C333.302 116.738 325.128 104.702 314.302 95.3499C303.475 85.9983 290.377 79.6613 276.326 76.9758C262.274 74.2904 247.762 75.3511 234.25 80.0514C220.738 84.7517 208.701 92.9259 199.35 103.753C189.998 114.579 183.661 127.677 180.976 141.729L261.027 157.027L287.804 234.003Z"
        fill="#FDC768" />
    <path
        d="M287.804 234.003C302.437 228.913 315.315 219.757 324.931 207.609C334.546 195.462 340.5 180.825 342.094 165.414C343.689 150.004 340.858 134.458 333.933 120.599C327.008 106.74 316.277 95.1419 302.996 87.1638L261.027 157.027L287.804 234.003Z"
        fill="#C8581A" />
    <path
        d="M412 76C447.899 76 477 105.101 477 141C477 176.899 447.899 206 412 206H404V211.5C404 225.583 392.583 237 378.5 237C364.417 237 353 225.583 353 211.5V101.195C353 87.2804 364.28 76 378.195 76H412Z"
        fill="#F0E6D2" />
    <path
        d="M353 211.5V101.195C353 87.2804 364.28 76 378.195 76H412C447.899 76 477 105.101 477 141C477 176.899 447.899 206 412 206V191C439.614 191 462 168.614 462 141C462 113.602 439.963 91.35 412.646 91.0039L412 91H378.195C372.565 91 368 95.5646 368 101.195V211.5C368 217.299 372.701 222 378.5 222V237C364.417 237 353 225.583 353 211.5ZM389 211.5V191H412V206H404V211.5C404 225.583 392.583 237 378.5 237V222C384.118 222 388.705 217.588 388.986 212.04L389 211.5Z"
        fill="#F0E6D2" />
    <path
        d="M536 104C536 118.083 524.583 129.5 510.5 129.5C496.417 129.5 485 118.083 485 104C485 89.9167 496.417 78.5 510.5 78.5C524.583 78.5 536 89.9167 536 104Z"
        fill="#F0E6D2" />
    <path
        d="M521 104C521 98.201 516.299 93.5 510.5 93.5C504.701 93.5 500 98.201 500 104C500 109.799 504.701 114.5 510.5 114.5V129.5C496.417 129.5 485 118.083 485 104C485 89.9167 496.417 78.5 510.5 78.5C524.583 78.5 536 89.9167 536 104C536 118.083 524.583 129.5 510.5 129.5V114.5C516.299 114.5 521 109.799 521 104Z"
        fill="#F0E6D2" />
    <path
        d="M485 166C485 151.917 496.417 140.5 510.5 140.5V140.5C524.583 140.5 536 151.917 536 166V209C536 223.083 524.583 234.5 510.5 234.5V234.5C496.417 234.5 485 223.083 485 209V166Z"
        fill="#F0E6D2" />
    <path
        d="M521 209V166C521 160.201 516.299 155.5 510.5 155.5C504.701 155.5 500 160.201 500 166V209C500 214.799 504.701 219.5 510.5 219.5V234.5C496.637 234.5 485.358 223.437 485.009 209.658L485 209V166C485 151.917 496.417 140.5 510.5 140.5C524.583 140.5 536 151.917 536 166V209L535.991 209.658C535.642 223.437 524.363 234.5 510.5 234.5V219.5C516.299 219.5 521 214.799 521 209Z"
        fill="#F0E6D2" />
    <path
        d="M160 156C164.418 156 168.043 159.592 167.581 163.986C166.012 178.881 160.077 193.117 150.375 205.03C138.95 219.059 122.951 229.069 104.896 233.485C86.8408 237.902 67.7563 236.473 50.6478 229.424C33.5392 222.375 19.3786 210.106 10.396 194.55C1.41342 178.994 -1.88085 161.034 1.032 143.499C3.94486 125.964 12.8993 109.85 26.4853 97.6941C40.0713 85.5385 57.5168 78.032 76.0745 76.357C91.815 74.9362 107.597 77.7792 121.632 84.4773C125.744 86.4399 126.881 91.6082 124.355 95.401L92.2806 143.566C88.74 148.883 92.5515 156 98.9392 156H160Z"
        fill="#F0E6D2" />
    <path
        d="M702 157.5C706.418 157.5 710.041 153.91 709.608 149.512C708.108 134.278 702.339 119.715 692.888 107.536C681.796 93.242 666.264 83.0453 648.738 78.5527C631.212 74.06 612.69 75.5267 596.089 82.7217C579.489 89.9167 565.755 102.431 557.051 118.292C548.347 134.153 545.168 152.46 548.016 170.327C550.863 188.194 559.575 204.605 572.778 216.975C585.981 229.345 602.925 236.97 620.939 238.649C636.289 240.079 651.672 237.122 665.328 230.205C669.269 228.208 670.352 223.224 667.979 219.497L636.33 169.797C632.939 164.471 636.765 157.5 643.079 157.5H702Z"
        fill="#F0E6D2" />
</svg>